<svg preserveAspectRatio="none" width="100%" height="100%" overflow="visible" style="display: block;" viewBox="0 0 140 140" fill="none" xmlns="http://www.w3.org/2000/svg">
<g id="chat-button">
<circle id="Ellipse 19" cx="70" cy="70" r="70" fill="var(--fill-0, #FE805F)"/>
<path id="Vector" d="M85.5 66.1C85.5 66.7896 85.2261 67.4509 84.7385 67.9385C84.2509 68.4261 83.5896 68.7 82.9 68.7H60.8C60.1104 68.7 59.4491 68.4261 58.9615 67.9385C58.4739 67.4509 58.2 66.7896 58.2 66.1C58.2 65.4104 58.4739 64.7491 58.9615 64.2615C59.4491 63.7739 60.1104 63.5 60.8 63.5H82.9C83.5896 63.5 84.2509 63.7739 84.7385 64.2615C85.2261 64.7491 85.5 65.4104 85.5 66.1ZM82.9 73.9H60.8C60.1104 73.9 59.4491 74.1739 58.9615 74.6615C58.4739 75.1491 58.2 75.8104 58.2 76.5C58.2 77.1896 58.4739 77.8509 58.9615 78.3385C59.4491 78.8261 60.1104 79.1 60.8 79.1H82.9C83.5896 79.1 84.2509 78.8261 84.7385 78.3385C85.2261 77.8509 85.5 77.1896 85.5 76.5C85.5 75.8104 85.2261 75.1491 84.7385 74.6615C84.2509 74.1739 83.5896 73.9 82.9 73.9ZM105 70C104.991 78.6166 101.563 86.8776 95.4705 92.9705C89.3776 99.0634 81.1166 102.491 72.5 102.5H45.2C43.8209 102.5 42.4982 101.952 41.523 100.977C40.5479 100.002 40 98.6791 40 97.3V70C40 61.3805 43.4241 53.114 49.519 47.019C55.614 40.9241 63.8805 37.5 72.5 37.5C81.1195 37.5 89.386 40.9241 95.481 47.019C101.576 53.114 105 61.3805 105 70ZM99.8 70C99.8 62.7596 96.9238 55.8157 91.804 50.696C86.6843 45.5762 79.7404 42.7 72.5 42.7C65.2596 42.7 58.3157 45.5762 53.196 50.696C48.0762 55.8157 45.2 62.7596 45.2 70V97.3H72.5C79.738 97.2923 86.6774 94.4135 91.7955 89.2955C96.9135 84.1774 99.7923 77.238 99.8 70Z" fill="var(--fill-0, white)"/>
</g>
</svg>
