<svg width="39" height="51.168" overflow="visible" style="display: block;" viewBox="0 0 39 51.168" fill="none" xmlns="http://www.w3.org/2000/svg">
<path id="K-logo" d="M36.7801 37.7509L29.2714 30.4048C27.2669 28.4437 27.2669 25.2178 29.2714 23.2568L32.3147 20.2793C34.4403 17.6794 34.335 13.831 31.7828 11.4388C29.1253 8.83885 24.767 8.83885 22.1095 11.4388C19.452 14.0388 19.452 18.3028 22.1095 20.9027C23.1826 21.9526 23.6565 23.8609 22.5835 24.9108L21.0274 26.4331C18.9751 28.441 15.5184 26.987 15.5184 24.1158V7.90462C15.5202 3.53588 12.0114 0 7.76008 0C3.50878 0 0 3.53588 0 7.79988V43.3681C0 47.6321 3.50706 51.168 7.76008 51.168H7.97247C12.1184 51.168 15.5202 47.7369 15.5202 43.5759C15.5202 41.7552 17.7122 40.8331 19.0137 42.1064L25.7253 48.6728C28.8076 51.6883 33.6978 51.6883 36.6747 48.6728C39.757 45.5525 39.757 40.6651 36.7818 37.7526L36.7801 37.7509Z" fill="var(--fill-0, #473C3C)"/>
</svg>
