<svg width="730" height="730" viewBox="0 0 730 730" fill="none" xmlns="http://www.w3.org/2000/svg">
<path d="M719.304 667.659C722.695 671.05 725.385 675.076 727.22 679.507C729.055 683.937 730 688.686 730 693.482C730 698.277 729.055 703.026 727.22 707.457C725.385 711.887 722.695 715.913 719.304 719.304C715.913 722.695 711.887 725.385 707.457 727.22C703.026 729.055 698.277 730 693.482 730C688.686 730 683.937 729.055 679.507 727.22C675.076 725.385 671.05 722.695 667.659 719.304L396.115 447.719C378.931 430.532 351.069 430.532 333.885 447.719L62.3406 719.304C55.4921 726.153 46.2035 730 36.5183 730C26.833 730 17.5445 726.153 10.6959 719.304C3.84745 712.456 1.90919e-07 703.167 0 693.482C-1.90919e-07 683.796 3.84745 674.508 10.6959 667.659L282.281 396.115C299.467 378.931 299.467 351.069 282.281 333.885L10.6959 62.3406C3.84745 55.4921 0 46.2035 0 36.5183C0 26.833 3.84745 17.5445 10.6959 10.6959C17.5445 3.84745 26.833 0 36.5183 0C46.2035 0 55.4921 3.84745 62.3406 10.6959L333.885 282.281C351.069 299.467 378.931 299.467 396.115 282.281L667.659 10.6959C674.508 3.84745 683.796 -1.90919e-07 693.482 0C703.167 1.90919e-07 712.456 3.84745 719.304 10.6959C726.153 17.5445 730 26.833 730 36.5183C730 46.2035 726.153 55.4921 719.304 62.3406L447.719 333.885C430.532 351.069 430.532 378.931 447.719 396.115L719.304 667.659Z" fill="white"/>
</svg>
